HIERARCHY
ROOT Hips
{
  OFFSET 196.326 95.9168 97.7182
  CHANNELS 6 Xposition Yposition Zposition Zrotation Xrotation Yrotation
  JOINT LeftUpLeg
  {
    OFFSET 8.64259 1.95398 -2.38835
    CHANNELS 3 Zrotation Xrotation Yrotation
    JOINT LeftLeg
    {
      OFFSET 43.7702 0 0
      CHANNELS 3 Zrotation Xrotation Yrotation
      JOINT LeftFoot
      {
        OFFSET 40.6238 0 0
        CHANNELS 3 Zrotation Xrotation Yrotation
        JOINT LeftToeBase
        {
          OFFSET 12.7242 0 0
          CHANNELS 3 Zrotation Xrotation Yrotation
          End Site
          {
            OFFSET 0 0 0
          }
        }
      }
    }
  }
  JOINT RightUpLeg
  {
    OFFSET -8.2249 1.95398 -2.59336
    CHANNELS 3 Zrotation Xrotation Yrotation
    JOINT RightLeg
    {
      OFFSET 43.5653 0 0
      CHANNELS 3 Zrotation Xrotation Yrotation
      JOINT RightFoot
      {
        OFFSET 40.6238 0 0
        CHANNELS 3 Zrotation Xrotation Yrotation
        JOINT RightToeBase
        {
          OFFSET 12.7242 0 0
          CHANNELS 3 Zrotation Xrotation Yrotation
          End Site
          {
            OFFSET 0 0 0
          }
        }
      }
    }
  }
  JOINT Spine
  {
    OFFSET 0.165834 0.87714 6.61349
    CHANNELS 3 Zrotation Xrotation Yrotation
    JOINT Spine1
    {
      OFFSET 7.38963 1.71661e-005 0
      CHANNELS 3 Zrotation Xrotation Yrotation
      JOINT Spine2
      {
        OFFSET 11.9445 1.14441e-005 0
        CHANNELS 3 Zrotation Xrotation Yrotation
        JOINT Spine3
        {
          OFFSET 14.7254 4.19617e-005 0
          CHANNELS 3 Zrotation Xrotation Yrotation
          JOINT Spine4
          {
            OFFSET 10.9679 0 0
            CHANNELS 3 Zrotation Xrotation Yrotation
            JOINT RightShoulder
            {
              OFFSET 2.46616 -1.6653 3.69651
              CHANNELS 3 Zrotation Xrotation Yrotation
              JOINT RightArm
              {
                OFFSET 13.0012 0 0
                CHANNELS 3 Zrotation Xrotation Yrotation
                JOINT RightForeArm
                {
                  OFFSET 28.7848 1.52588e-005 0
                  CHANNELS 3 Zrotation Xrotation Yrotation
                  JOINT RightHand
                  {
                    OFFSET 26.5688 1.52588e-005 0
                    CHANNELS 3 Zrotation Xrotation Yrotation
                    End Site
                    {
                      OFFSET 0 0 0
                    }
                  }
                }
              }
            }
            JOINT LeftShoulder
            {
              OFFSET 2.38034 -1.29275 -3.75231
              CHANNELS 3 Zrotation Xrotation Yrotation
              JOINT LeftArm
              {
                OFFSET 16.3182 6.10351e-005 0
                CHANNELS 3 Zrotation Xrotation Yrotation
                JOINT LeftForeArm
                {
                  OFFSET 27.0901 0 0
                  CHANNELS 3 Zrotation Xrotation Yrotation
                  JOINT LeftHand
                  {
                    OFFSET 24.5451 1.52588e-005 0
                    CHANNELS 3 Zrotation Xrotation Yrotation
                    End Site
                    {
                      OFFSET 0 0 0
                    }
                  }
                }
              }
            }
            JOINT Neck
            {
              OFFSET 5.0226 -0.0266342 0
              CHANNELS 3 Zrotation Xrotation Yrotation
              JOINT Head
              {
                OFFSET 6.69363 2.86102e-005 0
                CHANNELS 3 Zrotation Xrotation Yrotation
                End Site
                {
                  OFFSET 0 0 0
                }
              }
            }
          }
        }
      }
    }
  }
}
MOTION
Frames:	10
Frame Time:	0.0416667
36.3881 97.1436 -239.714 -36.2521 -84.2754 -36.4287 -173 7.26564 87.1412 -12.3794 14.4495 -2.06308 59.8513 8.66888 19.6262 43.4365 12.1782 -30.1276 179.297 8.0543 91.3538 -17.1621 4.60008 -1.406 69.1156 -3.16104 -1.67179 33.5816 -0.0473812 16.4241 0.0302187 6.98744 -89.7615 12.9002 0.174477 0.457687 1.22917 0.194458 0.449564 -21.3056 0.0288545 0.488963 -1.29291 0.0288546 0.488962 82.9671 -45.7839 -113.032 30.6671 -25.8984 7.06513 -32.9806 -13.5457 -67.3776 -7.6374 -1.22866 3.39721 -101.08 -40.354 58.3836 -29.5649 22.9542 5.94872 29.7455 10.15 -73.9097 11.2395 2.07003 13.8051 13.7457 -5.78679 2.56518 -5.09086 -6.27796 1.13674 
36.6558 97.1908 -239.772 -23.4651 -86.87 -24.4226 -173.999 4.96982 86.4069 -11.1031 15.8687 -1.56478 58.8944 8.47852 20.2005 43.6033 12.2447 -30.4928 177.885 6.45878 90.2607 -17.8862 5.08552 -0.707835 69.5645 -3.02913 -1.5925 33.3044 -0.0855033 15.6416 -0.290578 7.16872 -89.6455 12.5407 -0.408442 0.752803 0.869474 -0.374913 0.770045 -21.6646 -0.615812 0.595259 -1.65198 -0.615811 0.595256 83.2252 -45.1942 -112.852 25.518 -36.5127 2.02864 -40.7821 -0.83232 -76.5971 7.93418 -0.573559 -6.12707 -99.8712 -40.0573 60.1712 -26.7575 29.6853 3.29484 36.8902 -1.00705 -83.9395 14.7626 2.04079 9.64255 13.4229 -8.05029 2.45229 -5.05845 -8.44786 1.02052 
36.251 97.1618 -240.001 -31.5448 -84.5776 -31.2548 -173.069 7.59414 87.6557 -12.6823 15.0915 -1.80994 60.0117 8.68225 19.7043 42.9765 11.9538 -29.4396 179.282 7.80958 91.741 -16.5088 5.15747 -1.05798 68.8385 -3.11406 -1.65488 32.9717 -0.171363 16.3152 -0.163332 6.92249 -89.7839 13.0288 -0.220559 0.457528 1.35777 -0.200198 0.466794 -21.1768 -0.347861 0.370095 -1.1641 -0.347861 0.370094 84.5866 -44.0693 -111.105 20.0395 -43.0829 -4.37942 -26.5591 4.91298 -92.6185 20.3398 1.44361 5.21001 -98.897 -39.5106 61.494 -25.1688 30.159 1.4833 32.0696 -9.07103 -92.6348 11.7993 1.19401 5.86253 13.9785 -6.87056 2.10438 -5.84352 -7.22421 0.883532 
35.9558 97.2204 -240.044 -39.9937 -82.9239 -39.9204 -172.721 8.01096 87.7521 -11.9324 14.0029 -2.17681 59.493 8.2548 20.0372 43.5608 12.3194 -29.5749 179.376 8.82095 91.7118 -16.5957 3.61193 -1.11556 68.8156 -3.12811 -1.66198 32.3346 -0.297664 16.1615 -0.100646 6.80282 -89.7788 13.2682 -0.092938 0.454347 1.5972 -0.0728507 0.457986 -20.9374 -0.225197 0.405408 -0.924796 -0.225194 0.405411 85.802 -42.5444 -109.683 14.453 -45.5603 -12.4776 -22.364 18.1577 -105.634 27.0465 1.93005 3.43894 -99.0021 -39.0784 61.1338 -24.6485 24.1054 2.73614 21.5382 -13.2367 -103.748 11.0103 0.958605 4.55461 14.4171 -3.41057 1.28776 -5.76035 -3.64366 1.56316 
35.8242 97.2373 -239.982 -45.6907 -82.5826 -45.6919 -172.694 7.51117 87.7768 -11.5455 13.5215 -2.15935 59.2962 8.12115 20.0856 43.9863 12.5154 -30.2716 179.496 8.58151 91.7219 -16.513 3.02291 -1.28554 68.3745 -2.98117 -1.59033 33.2471 -0.114859 16.3394 -0.165727 6.78426 -89.8159 13.3056 -0.239895 0.39876 1.63464 -0.222116 0.408929 -20.9004 -0.348653 0.308228 -0.887705 -0.348652 0.30823 88.8841 -39.6824 -105.453 9.98679 -43.9742 -23.4465 -10.2599 18.3092 -123.481 25.3311 2.47701 3.88368 -99.0845 -39.5358 61.2032 -23.3093 16.2849 6.07877 12.5106 -12.2877 -111.433 9.88415 0.478523 0.940336 13.5613 0.44264 -0.46011 -4.64739 0.609617 3.3939 
35.6331 97.2848 -239.888 -51.6681 -82.1996 -51.6473 -172.532 7.17144 87.9556 -11.8406 12.5642 -2.11976 59.5199 7.82638 19.1851 44.1954 12.7704 -29.2519 179.705 8.11336 91.9123 -16.3004 2.60443 -1.48838 68.4317 -3.04516 -1.62453 32.8024 -0.211433 16.5076 -0.269053 6.75897 -89.7965 13.3568 -0.435389 0.462664 1.68581 -0.414602 0.48137 -20.8496 -0.554307 0.310426 -0.836953 -0.554308 0.310421 89.8021 -39.6251 -103.877 9.87598 -35.0711 -30.2214 4.57851 5.62757 -135.779 24.035 1.46987 -3.35922 -98.3484 -39.4363 62.3498 -21.7369 10.0192 9.67474 10.8305 -10.9936 -114.063 7.49147 0.344279 0.677768 12.1435 3.8873 -2.27689 -4.07423 4.44308 4.18711 
35.4671 97.2367 -239.85 -55.4953 -81.7538 -55.4882 -172.933 7.05691 87.781 -12.1714 11.402 -1.63029 59.5968 7.98102 18.9671 44.5746 13.1724 -28.0205 179.752 8.17544 91.9791 -16.7755 2.14038 -1.54528 68.7405 -3.06731 -1.62785 32.6674 -0.237982 16.4548 -0.225474 6.73196 -89.8041 13.4106 -0.352476 0.437203 1.73959 -0.332894 0.452288 -20.7956 -0.467574 0.311058 -0.782969 -0.46758 0.311056 90.1565 -40.2204 -103.088 15.7611 -25.7552 -32.8657 20.7106 -14.5633 -137.867 23.635 -0.0341286 -12.7405 -98.5012 -39.4057 62.0893 -20.4874 6.3146 11.8792 10.6308 -9.36052 -111.097 5.00586 0.216526 0.377511 11.615 5.48274 -2.7844 -4.77672 6.09256 4.33742 
35.2941 97.1938 -239.781 -56.6449 -81.4939 -56.3614 -172.915 7.28249 88.0381 -12.7494 10.9431 -1.43828 59.884 8.32322 19.2101 44.6545 13.153 -28.5969 179.888 8.20835 92.3278 -16.8966 1.82894 -1.50399 68.667 -3.06635 -1.63055 32.878 -0.183314 16.0604 -0.10025 6.68768 -89.868 13.4986 -0.134897 0.281725 1.82765 -0.122365 0.287394 -20.7074 -0.213336 0.228162 -0.694731 -0.213323 0.228176 89.708 -41.0465 -103.619 22.8929 -18.5829 -31.5791 32.449 -26.7305 -134.89 27.0861 -0.4138 -14.9863 -98.9993 -39.9958 61.5407 -19.1946 6.51706 12.0415 12.3992 -8.54456 -105.625 4.33792 0.224739 1.00386 11.417 4.39278 -1.88265 -5.03992 4.79809 4.16535 
35.2877 97.1526 -239.728 -51.8568 -82.0597 -51.4708 -173.079 7.51201 88.0545 -12.6173 12.232 -1.37163 59.2917 8.44893 20.4408 45.5698 13.6061 -29.7176 179.664 8.41908 92.3611 -17.1214 2.42763 -1.19239 68.9563 -3.10171 -1.64156 32.3853 -0.285774 16.1163 -0.168475 6.64434 -89.8802 13.5856 -0.275978 0.275764 1.91468 -0.263577 0.287633 -20.6206 -0.346103 0.180075 -0.607958 -0.346104 0.180065 89.1141 -42.0247 -104.339 23.5063 -17.5584 -31.3821 31.6232 -24.0174 -132.116 27.3669 -0.459903 -14.8523 -99.2408 -39.7797 61.0579 -20.0158 6.68513 12.4974 15.879 -7.93555 -101.54 4.06327 0.309507 2.72226 11.0966 1.01574 -1.73892 -4.38737 1.51128 5.35449 
35.0874 97.1838 -239.614 -59.5869 -81.1599 -59.5196 -172.642 6.45555 88.0066 -11.741 11.3981 -1.78575 59.2302 8.20999 20.2634 45.3868 13.5401 -29.3212 179.942 8.043 92.2728 -17.2289 1.35397 -1.68866 69.2154 -3.23889 -1.70901 32.1997 -0.325529 16.1734 -0.118327 6.68961 -89.911 13.4947 -0.191531 0.203336 1.82377 -0.182395 0.211564 -20.7114 -0.243784 0.136381 -0.69873 -0.243792 0.136365 88.7925 -41.0652 -105.173 19.5858 -22.006 -33.8592 12.8028 -7.0692 -134.436 18.5332 0.254388 -9.4894 -99.2933 -40.3353 61.2164 -21.9094 6.22599 13.3437 16.6227 -7.15255 -99.0691 4.11617 0.270848 2.0296 11.4578 -1.24413 0.306608 -4.55268 -1.18852 5.34002 
